<mxfile host="Electron" modified="2025-06-09T13:46:31.693Z" agent="Mozilla/5.0 (Windows NT 10.0; Win64; x64) AppleWebKit/537.36 (KHTML, like Gecko) draw.io/21.7.5 Chrome/114.0.5735.289 Electron/25.8.1 Safari/537.36" etag="xu4g7OOleRMU0Bc68Hls" version="21.7.5" type="device">
  <diagram name="第 1 页" id="z8OuZn5OgA-DyvEjLKh9">
    <mxGraphModel dx="917" dy="592" grid="1" gridSize="10" guides="1" tooltips="1" connect="1" arrows="1" fold="1" page="1" pageScale="1" pageWidth="827" pageHeight="1169" math="0" shadow="0">
      <root>
        <mxCell id="0" />
        <mxCell id="1" parent="0" />
        <mxCell id="Relw7SzlwrJ3lvGeGyho-1" value="" style="ellipse;whiteSpace=wrap;html=1;strokeColor=#d6b656;fillColor=#fff2cc;" vertex="1" parent="1">
          <mxGeometry x="70" y="200" width="590" height="360" as="geometry" />
        </mxCell>
        <mxCell id="Relw7SzlwrJ3lvGeGyho-2" value="" style="ellipse;whiteSpace=wrap;html=1;strokeColor=#82b366;fillColor=#d5e8d4;" vertex="1" parent="1">
          <mxGeometry x="130" y="260" width="470" height="240" as="geometry" />
        </mxCell>
        <mxCell id="Relw7SzlwrJ3lvGeGyho-3" value="" style="ellipse;whiteSpace=wrap;html=1;strokeColor=#b85450;fillColor=#f8cecc;" vertex="1" parent="1">
          <mxGeometry x="220" y="307.5" width="290" height="145" as="geometry" />
        </mxCell>
        <mxCell id="Relw7SzlwrJ3lvGeGyho-5" value="" style="shape=or;whiteSpace=wrap;html=1;rotation=-140;fillColor=#76608a;fontColor=#ffffff;strokeColor=#432D57;" vertex="1" parent="1">
          <mxGeometry x="146.33" y="315" width="181.17" height="50" as="geometry" />
        </mxCell>
        <mxCell id="Relw7SzlwrJ3lvGeGyho-6" value="红标坐标点" style="text;html=1;strokeColor=none;fillColor=none;align=center;verticalAlign=middle;whiteSpace=wrap;rounded=0;" vertex="1" parent="1">
          <mxGeometry x="327.5" y="365" width="75" height="30" as="geometry" />
        </mxCell>
        <mxCell id="Relw7SzlwrJ3lvGeGyho-7" value="绿标坐标点" style="text;html=1;strokeColor=none;fillColor=none;align=center;verticalAlign=middle;whiteSpace=wrap;rounded=0;" vertex="1" parent="1">
          <mxGeometry x="327.5" y="460" width="75" height="30" as="geometry" />
        </mxCell>
        <mxCell id="Relw7SzlwrJ3lvGeGyho-8" value="黄标坐标点" style="text;html=1;strokeColor=none;fillColor=none;align=center;verticalAlign=middle;whiteSpace=wrap;rounded=0;" vertex="1" parent="1">
          <mxGeometry x="327.5" y="510" width="75" height="30" as="geometry" />
        </mxCell>
        <mxCell id="Relw7SzlwrJ3lvGeGyho-9" value="&lt;font color=&quot;#ffffff&quot;&gt;错翻、漏翻、模糊翻译&lt;/font&gt;" style="text;html=1;strokeColor=none;fillColor=none;align=center;verticalAlign=middle;whiteSpace=wrap;rounded=0;rotation=40;" vertex="1" parent="1">
          <mxGeometry x="180.00000000000003" y="335" width="140" height="30" as="geometry" />
        </mxCell>
      </root>
    </mxGraphModel>
  </diagram>
</mxfile>
